<svg width="38" height="32" viewBox="0 0 38 32" fill="none" xmlns="http://www.w3.org/2000/svg">
<path d="M26.5663 31.0002V27.6668C26.5663 25.8987 25.8929 24.203 24.6943 22.9528C23.4956 21.7025 21.8699 21.0001 20.1748 21.0001H7.39159C5.69643 21.0001 4.07071 21.7025 2.87205 22.9528C1.6734 24.203 1 25.8987 1 27.6668V31.0002" stroke="#7D7D7D" stroke-width="2" stroke-linecap="round" stroke-linejoin="round"/>
<path d="M13.7836 14.3334C17.3136 14.3334 20.1752 11.3486 20.1752 7.66672C20.1752 3.98479 17.3136 1 13.7836 1C10.2537 1 7.39206 3.98479 7.39206 7.66672C7.39206 11.3486 10.2537 14.3334 13.7836 14.3334Z" stroke="#7D7D7D" stroke-width="2" stroke-linecap="round" stroke-linejoin="round"/>
<path d="M36.1562 31.0002V27.6668C36.1551 26.1897 35.6838 24.7548 34.8161 23.5873C33.9485 22.4199 32.7337 21.5861 31.3625 21.2168" stroke="#7D7D7D" stroke-width="2" stroke-linecap="round" stroke-linejoin="round"/>
<path d="M24.9689 1.2168C26.3437 1.58397 27.5623 2.41797 28.4325 3.58733C29.3027 4.75669 29.7751 6.19488 29.7751 7.67518C29.7751 9.15547 29.3027 10.5937 28.4325 11.763C27.5623 12.9324 26.3437 13.7664 24.9689 14.1336" stroke="#7D7D7D" stroke-width="2" stroke-linecap="round" stroke-linejoin="round"/>
</svg>
