<svg width="32" height="30" viewBox="0 0 32 30" fill="none" xmlns="http://www.w3.org/2000/svg">
<path d="M15.6 14.9984C15.9364 14.9984 16.2094 14.6929 16.2094 14.3166C16.2094 13.9403 15.9364 13.6348 15.6 13.6348C15.2637 13.6348 14.9906 13.9403 14.9906 14.3166C14.9906 14.6929 15.2637 14.9984 15.6 14.9984Z" fill="#7D7D7D"/>
<path d="M28.7625 9.54489H25.1589L19.6154 1.01153C19.1175 0.0566952 18.0206 -0.283158 17.1494 0.256718C16.2663 0.805651 15.9487 2.05027 16.4396 3.03867C16.4536 3.06663 16.4691 3.09353 16.4865 3.1191L20.8344 9.54489H10.3656L14.7136 3.1191C14.7307 3.09353 14.7464 3.06663 14.7604 3.03867C15.2501 2.05267 14.9361 0.806982 14.0499 0.256186C13.1806 -0.282625 12.0837 0.0569616 11.5848 1.011L6.04114 9.54489H2.4375C1.09354 9.54489 0 10.7685 0 12.2722C0 13.4583 0.687927 14.4909 1.65698 14.8563C1.76028 14.9458 1.8893 14.9996 2.02974 14.9996C2.05783 14.9996 2.08425 15.0014 2.11187 15.0057C2.37418 15.0451 2.58199 15.2678 2.6296 15.5592L4.70266 28.3207C4.86096 29.2937 5.61744 30 6.50151 30H24.6985C25.5826 30 26.339 29.2937 26.4973 28.3204L28.5704 15.5594C28.618 15.2678 28.8261 15.0451 29.0893 15.0057C29.116 15.0014 29.1424 14.9996 29.1703 14.9996C29.3117 14.9996 29.4416 14.9452 29.5449 14.8547C30.5147 14.4869 31.2 13.4561 31.2 12.2722C31.2 10.7685 30.1065 9.54489 28.7625 9.54489ZM17.4883 2.34058C17.3491 2.01804 17.4572 1.62519 17.7404 1.4494C18.0354 1.26642 18.4072 1.38441 18.5698 1.71228C18.5817 1.73678 18.5952 1.76022 18.6097 1.7826L23.6521 9.54489H22.3629L17.4883 2.34058ZM12.5903 1.78286C12.6048 1.76049 12.6179 1.73732 12.63 1.71335C12.7931 1.38521 13.1651 1.26696 13.4589 1.44887C13.7426 1.62519 13.8511 2.01751 13.7117 2.34058L8.83713 9.54489H7.54792L12.5903 1.78286ZM28.7625 13.6359H18.0375C17.7009 13.6359 17.4281 13.9411 17.4281 14.3177C17.4281 14.6944 17.7009 14.9927 18.0375 14.9927H27.4462C27.4143 15.0944 27.389 15.1999 27.3714 15.3085L25.2981 28.0765C25.2455 28.4009 24.9932 28.6363 24.6985 28.6363H6.50151C6.20658 28.6363 5.9545 28.4009 5.90165 28.0767L3.82859 15.3152C3.81097 15.2065 3.78574 15.1011 3.75385 14.9996H13.1625C13.4991 14.9996 13.7719 14.6944 13.7719 14.3177C13.7719 13.9411 13.4991 13.6359 13.1625 13.6359H2.4375C1.75981 13.6359 1.21875 13.018 1.21875 12.2722C1.21875 11.5203 1.76552 10.9086 2.4375 10.9086H28.7625C29.4345 10.9086 29.9813 11.5203 29.9813 12.2722C29.9813 13.0294 29.4276 13.6359 28.7625 13.6359Z" fill="#7D7D7D"/>
<path d="M15.5988 17.0449C14.5907 17.0449 13.7707 17.9625 13.7707 19.0904V24.5451C13.7707 25.6731 14.5907 26.5906 15.5988 26.5906C16.6069 26.5906 17.427 25.6731 17.427 24.5451V19.0904C17.427 17.9603 16.6088 17.0449 15.5988 17.0449ZM16.2082 24.5451C16.2082 24.9212 15.9349 25.227 15.5988 25.227C15.2627 25.227 14.9895 24.9212 14.9895 24.5451V19.0904C14.9895 18.7144 15.2627 18.4086 15.5988 18.4086C15.9352 18.4086 16.2082 18.7141 16.2082 19.0904V24.5451Z" fill="#7D7D7D"/>
<path d="M21.6936 26.5906C22.7017 26.5906 23.5217 25.6731 23.5217 24.5451V19.0904C23.5217 17.9603 22.7036 17.0449 21.6936 17.0449C20.6855 17.0449 19.8655 17.9625 19.8655 19.0904V24.5451C19.8655 25.6731 20.6855 26.5906 21.6936 26.5906ZM21.0842 19.0904C21.0842 18.7144 21.3575 18.4086 21.6936 18.4086C22.03 18.4086 22.303 18.7141 22.303 19.0904V24.5451C22.303 24.9212 22.0297 25.227 21.6936 25.227C21.3575 25.227 21.0842 24.9212 21.0842 24.5451V19.0904Z" fill="#7D7D7D"/>
<path d="M9.50768 17.0449C8.49959 17.0449 7.67955 17.9625 7.67955 19.0904V24.5451C7.67955 25.6731 8.49959 26.5906 9.50768 26.5906C10.5158 26.5906 11.3358 25.6731 11.3358 24.5451V19.0904C11.3358 17.9603 10.5177 17.0449 9.50768 17.0449ZM10.1171 24.5451C10.1171 24.9212 9.84378 25.227 9.50768 25.227C9.17157 25.227 8.8983 24.9212 8.8983 24.5451V19.0904C8.8983 18.7144 9.17157 18.4086 9.50768 18.4086C9.84402 18.4086 10.1171 18.7138 10.1171 19.0904V24.5451Z" fill="#7D7D7D"/>
</svg>
