<svg width="72" height="76" viewBox="0 0 72 76" fill="none" xmlns="http://www.w3.org/2000/svg">
<g clip-path="url(#clip0_1_106)">
<g opacity="0.5">
<path opacity="0.5" d="M9.28301 3.55585H9.00359V5.3286H9.28301V3.55585Z" fill="#47E6B1"/>
<path opacity="0.5" d="M9.93507 4.59864V4.2858H8.3517V4.59864H9.93507Z" fill="#47E6B1"/>
</g>
<g opacity="0.5">
<path opacity="0.5" d="M68.3853 72.2942H68.1059V74.0669H68.3853V72.2942Z" fill="#47E6B1"/>
<path opacity="0.5" d="M69.0374 73.3369V73.0241H67.454V73.3369H69.0374Z" fill="#47E6B1"/>
</g>
<g opacity="0.5">
<path opacity="0.5" d="M68.4958 20.2303H68.2164V22.003H68.4958V20.2303Z" fill="#47E6B1"/>
<path opacity="0.5" d="M69.1479 21.273V20.9602H67.5646V21.273H69.1479Z" fill="#47E6B1"/>
</g>
<g opacity="0.5">
<path opacity="0.5" d="M71.3487 4.25949H71.0693V6.03225H71.3487V4.25949Z" fill="#47E6B1"/>
<path opacity="0.5" d="M72.0008 5.30228V4.98944H70.4175V5.30228H72.0008Z" fill="#47E6B1"/>
</g>
<g opacity="0.5">
<path opacity="0.5" d="M22.6898 3.40738H22.4104V5.18014H22.6898V3.40738Z" fill="#47E6B1"/>
<path opacity="0.5" d="M23.3411 4.45017V4.13733H21.7577V4.45017H23.3411Z" fill="#47E6B1"/>
</g>
<path opacity="0.5" d="M5.13601 29.8935C5.05905 29.8559 4.99713 29.788 4.96201 29.7026C4.92689 29.6172 4.92103 29.5203 4.94554 29.4304C4.94949 29.4167 4.95203 29.4025 4.95309 29.3881C4.95873 29.3455 4.9511 29.302 4.9315 29.2649C4.91189 29.2278 4.88149 29.1994 4.84539 29.1844C4.8093 29.1694 4.7697 29.1688 4.73324 29.1826C4.69678 29.1965 4.66568 29.2239 4.64514 29.2603C4.63743 29.272 4.63096 29.2846 4.62584 29.2979C4.59225 29.3841 4.53154 29.4534 4.45527 29.4927C4.379 29.5321 4.29248 29.5386 4.21217 29.5112C4.19991 29.5067 4.18724 29.5039 4.17441 29.5027C4.13633 29.4964 4.09747 29.5049 4.06435 29.5269C4.03122 29.5489 4.00584 29.5829 3.99247 29.6233C3.97909 29.6637 3.97853 29.708 3.99088 29.7489C4.00323 29.7897 4.02774 29.8245 4.06029 29.8475C4.0707 29.8561 4.08196 29.8634 4.09386 29.8691C4.17081 29.9067 4.23274 29.9747 4.26785 30.0601C4.30297 30.1455 4.30884 30.2423 4.28433 30.3323C4.28037 30.346 4.27784 30.3602 4.27678 30.3745C4.27114 30.4172 4.27876 30.4607 4.29837 30.4978C4.31798 30.5349 4.34838 30.5633 4.38447 30.5782C4.42057 30.5932 4.46017 30.5938 4.49662 30.58C4.53308 30.5662 4.56419 30.5388 4.58473 30.5023C4.59243 30.4907 4.59891 30.478 4.60403 30.4647C4.63762 30.3786 4.69832 30.3092 4.7746 30.2699C4.85087 30.2306 4.93739 30.224 5.0177 30.2515C5.02995 30.2559 5.04262 30.2587 5.05546 30.2599C5.09353 30.2662 5.13239 30.2577 5.16552 30.2358C5.19865 30.2138 5.22402 30.1798 5.2374 30.1393C5.25078 30.0989 5.25134 30.0546 5.23899 30.0138C5.22664 29.973 5.20213 29.9381 5.16957 29.9151C5.15917 29.9065 5.1479 29.8993 5.13601 29.8935Z" fill="#4D8AF0"/>
<path opacity="0.5" d="M10.2948 65.437C10.2179 65.3993 10.1559 65.3314 10.1208 65.246C10.0857 65.1606 10.0798 65.0637 10.1043 64.9738C10.1083 64.9601 10.1108 64.9459 10.1119 64.9315C10.1175 64.8889 10.1099 64.8454 10.0903 64.8083C10.0707 64.7712 10.0403 64.7428 10.0042 64.7278C9.9681 64.7129 9.9285 64.7122 9.89204 64.7261C9.85558 64.7399 9.82448 64.7673 9.80394 64.8038C9.79623 64.8154 9.78976 64.828 9.78464 64.8413C9.75104 64.9275 9.69034 64.9968 9.61407 65.0362C9.5378 65.0755 9.45128 65.082 9.37097 65.0546C9.35871 65.0502 9.34604 65.0473 9.33321 65.0462C9.29513 65.0398 9.25627 65.0484 9.22315 65.0703C9.19002 65.0923 9.16464 65.1263 9.15126 65.1667C9.13789 65.2071 9.13733 65.2515 9.14968 65.2923C9.16203 65.3331 9.18653 65.3679 9.21909 65.3909C9.2295 65.3996 9.24076 65.4068 9.25266 65.4125C9.32961 65.4502 9.39153 65.5181 9.42665 65.6035C9.46177 65.6889 9.46764 65.7858 9.44313 65.8757C9.43917 65.8894 9.43664 65.9036 9.43558 65.918C9.42994 65.9606 9.43756 66.0041 9.45717 66.0412C9.47678 66.0783 9.50718 66.1067 9.54327 66.1217C9.57937 66.1366 9.61896 66.1373 9.65542 66.1234C9.69188 66.1096 9.72299 66.0822 9.74352 66.0457C9.75123 66.0341 9.75771 66.0215 9.76282 66.0082C9.79642 65.922 9.85712 65.8527 9.93339 65.8133C10.0097 65.774 10.0962 65.7675 10.1765 65.7949C10.1888 65.7993 10.2014 65.8022 10.2143 65.8034C10.2523 65.8097 10.2912 65.8011 10.3243 65.7792C10.3574 65.7572 10.3828 65.7232 10.3962 65.6828C10.4096 65.6424 10.4101 65.598 10.3978 65.5572C10.3854 65.5164 10.3609 65.4816 10.3284 65.4586C10.318 65.4499 10.3067 65.4427 10.2948 65.437Z" fill="#4D8AF0"/>
<path opacity="0.5" d="M57.2002 18.3702C57.1232 18.3326 57.0613 18.2646 57.0262 18.1792C56.9911 18.0938 56.9852 17.9969 57.0097 17.907C57.0137 17.8933 57.0162 17.8791 57.0173 17.8647C57.0229 17.8221 57.0153 17.7786 56.9957 17.7415C56.9761 17.7044 56.9457 17.676 56.9096 17.661C56.8735 17.6461 56.8339 17.6454 56.7974 17.6593C56.761 17.6731 56.7299 17.7005 56.7093 17.737C56.7016 17.7486 56.6951 17.7612 56.69 17.7745C56.6564 17.8607 56.5957 17.93 56.5194 17.9694C56.4432 18.0087 56.3567 18.0152 56.2763 17.9878C56.2641 17.9834 56.2514 17.9805 56.2386 17.9793C56.2005 17.973 56.1617 17.9816 56.1285 18.0035C56.0954 18.0255 56.07 18.0595 56.0566 18.0999C56.0433 18.1403 56.0427 18.1847 56.0551 18.2255C56.0674 18.2663 56.0919 18.3011 56.1245 18.3241C56.1349 18.3328 56.1461 18.34 56.158 18.3457C56.235 18.3834 56.2969 18.4513 56.332 18.5367C56.3672 18.6221 56.373 18.719 56.3485 18.8089C56.3446 18.8226 56.342 18.8368 56.341 18.8512C56.3353 18.8938 56.3429 18.9373 56.3625 18.9744C56.3822 19.0115 56.4126 19.0399 56.4486 19.0549C56.4847 19.0698 56.5243 19.0705 56.5608 19.0567C56.5973 19.0428 56.6284 19.0154 56.6489 18.9789C56.6566 18.9673 56.6631 18.9547 56.6682 18.9414C56.7018 18.8552 56.7625 18.7859 56.8388 18.7465C56.915 18.7072 57.0016 18.7007 57.0819 18.7281C57.0941 18.7325 57.1068 18.7354 57.1196 18.7366C57.1577 18.7429 57.1966 18.7343 57.2297 18.7124C57.2628 18.6904 57.2882 18.6564 57.3016 18.616C57.315 18.5756 57.3155 18.5312 57.3032 18.4904C57.2908 18.4496 57.2663 18.4148 57.2338 18.3918C57.2233 18.3831 57.2121 18.3759 57.2002 18.3702Z" fill="#4D8AF0"/>
<path opacity="0.5" d="M56.5749 26.8619C56.498 26.8243 56.4361 26.7563 56.4009 26.671C56.3658 26.5856 56.36 26.4887 56.3845 26.3988C56.3884 26.385 56.3909 26.3709 56.392 26.3565C56.3976 26.3139 56.39 26.2704 56.3704 26.2333C56.3508 26.1962 56.3204 26.1678 56.2843 26.1528C56.2482 26.1378 56.2086 26.1372 56.1722 26.151C56.1357 26.1648 56.1046 26.1923 56.0841 26.2287C56.0764 26.2404 56.0699 26.253 56.0648 26.2663C56.0312 26.3525 55.9705 26.4218 55.8942 26.4611C55.8179 26.5004 55.7314 26.507 55.6511 26.4796C55.6388 26.4751 55.6262 26.4723 55.6133 26.4711C55.5753 26.4648 55.5364 26.4733 55.5033 26.4953C55.4701 26.5172 55.4448 26.5513 55.4314 26.5917C55.418 26.6321 55.4174 26.6764 55.4298 26.7173C55.4421 26.7581 55.4667 26.7929 55.4992 26.8159C55.5096 26.8245 55.5209 26.8318 55.5328 26.8375C55.6097 26.8751 55.6717 26.9431 55.7068 27.0285C55.7419 27.1139 55.7478 27.2107 55.7233 27.3007C55.7193 27.3144 55.7168 27.3286 55.7157 27.3429C55.7101 27.3856 55.7177 27.4291 55.7373 27.4662C55.7569 27.5032 55.7873 27.5317 55.8234 27.5466C55.8595 27.5616 55.8991 27.5622 55.9355 27.5484C55.972 27.5346 56.0031 27.5071 56.0236 27.4707C56.0314 27.459 56.0378 27.4464 56.0429 27.4331C56.0765 27.347 56.1372 27.2776 56.2135 27.2383C56.2898 27.199 56.3763 27.1924 56.4566 27.2199C56.4689 27.2243 56.4815 27.2271 56.4944 27.2283C56.5325 27.2346 56.5713 27.2261 56.6044 27.2041C56.6376 27.1822 56.6629 27.1481 56.6763 27.1077C56.6897 27.0673 56.6903 27.023 56.6779 26.9822C56.6656 26.9413 56.6411 26.9065 56.6085 26.8835C56.5981 26.8749 56.5868 26.8677 56.5749 26.8619Z" fill="#4D8AF0"/>
<path opacity="0.5" d="M56.6195 0.711382C56.5425 0.673769 56.4806 0.605802 56.4455 0.520408C56.4104 0.435014 56.4045 0.338147 56.429 0.248229C56.433 0.234508 56.4355 0.220323 56.4365 0.205953C56.4422 0.16332 56.4346 0.119812 56.415 0.0827246C56.3953 0.0456367 56.365 0.0172233 56.3289 0.00224758C56.2928 -0.0127281 56.2532 -0.0133555 56.2167 0.000470402C56.1802 0.0142963 56.1491 0.0417352 56.1286 0.0781868C56.1209 0.0898374 56.1144 0.102448 56.1093 0.115765C56.0759 0.201889 56.0154 0.271277 55.9393 0.310761C55.8632 0.350244 55.7768 0.357077 55.6965 0.329962C55.6842 0.32553 55.6715 0.322693 55.6587 0.321506C55.6206 0.315194 55.5818 0.323729 55.5486 0.345682C55.5155 0.367635 55.4901 0.40167 55.4768 0.442083C55.4634 0.482495 55.4628 0.526827 55.4752 0.567648C55.4875 0.608468 55.512 0.643294 55.5446 0.666287C55.555 0.674915 55.5663 0.682167 55.5782 0.687895C55.6551 0.725508 55.717 0.793474 55.7522 0.878868C55.7873 0.964263 55.7931 1.06113 55.7686 1.15105C55.7647 1.16477 55.7621 1.17895 55.7611 1.19332C55.7554 1.23596 55.7631 1.27946 55.7827 1.31655C55.8023 1.35364 55.8327 1.38205 55.8688 1.39703C55.9049 1.412 55.9445 1.41263 55.9809 1.39881C56.0174 1.38498 56.0485 1.35754 56.069 1.32109C56.0767 1.30944 56.0832 1.29683 56.0883 1.28351C56.121 1.19714 56.1807 1.12717 56.2564 1.08683C56.332 1.04649 56.4182 1.03859 56.4986 1.06462C56.5109 1.06905 56.5236 1.07189 56.5364 1.07307C56.5745 1.07939 56.6133 1.07085 56.6465 1.0489C56.6796 1.02694 56.705 0.992909 56.7183 0.952497C56.7317 0.912084 56.7323 0.867752 56.7199 0.826932C56.7076 0.786112 56.6831 0.751285 56.6505 0.728292C56.6407 0.721475 56.6303 0.715808 56.6195 0.711382Z" fill="#4D8AF0"/>
<path opacity="0.5" d="M70.7295 43.6472C70.6526 43.6096 70.5907 43.5416 70.5555 43.4562C70.5204 43.3708 70.5145 43.274 70.5391 43.1841C70.543 43.1703 70.5455 43.1561 70.5466 43.1418C70.5522 43.0991 70.5446 43.0556 70.525 43.0185C70.5054 42.9815 70.475 42.953 70.4389 42.9381C70.4028 42.9231 70.3632 42.9225 70.3268 42.9363C70.2903 42.9501 70.2592 42.9776 70.2387 43.014C70.231 43.0257 70.2245 43.0383 70.2194 43.0516C70.1858 43.1377 70.1251 43.2071 70.0488 43.2464C69.9725 43.2857 69.886 43.2923 69.8057 43.2648C69.7934 43.2604 69.7808 43.2576 69.7679 43.2564C69.7299 43.2501 69.691 43.2586 69.6579 43.2806C69.6247 43.3025 69.5994 43.3366 69.586 43.377C69.5726 43.4174 69.5721 43.4617 69.5844 43.5025C69.5967 43.5434 69.6213 43.5782 69.6538 43.6012C69.6642 43.6098 69.6755 43.6171 69.6874 43.6228C69.7651 43.6606 69.8275 43.7294 69.8626 43.8159C69.8976 43.9023 69.9027 44.0002 69.877 44.0906C69.8731 44.1044 69.8705 44.1185 69.8695 44.1329C69.8638 44.1755 69.8714 44.219 69.8911 44.2561C69.9107 44.2932 69.9411 44.3216 69.9772 44.3366C70.0133 44.3516 70.0528 44.3522 70.0893 44.3384C70.1258 44.3246 70.1569 44.2971 70.1774 44.2607C70.1851 44.249 70.1916 44.2364 70.1967 44.2231C70.2303 44.1369 70.291 44.0676 70.3673 44.0283C70.4435 43.989 70.5301 43.9824 70.6104 44.0098C70.6226 44.0143 70.6353 44.0171 70.6481 44.0183C70.6862 44.0246 70.7251 44.0161 70.7582 43.9941C70.7913 43.9722 70.8167 43.9381 70.8301 43.8977C70.8435 43.8573 70.844 43.813 70.8317 43.7721C70.8193 43.7313 70.7948 43.6965 70.7623 43.6735C70.7523 43.6633 70.7413 43.6545 70.7295 43.6472Z" fill="#4D8AF0"/>
<path opacity="0.5" d="M5.1831 16.232C5.49174 16.232 5.74194 15.9518 5.74194 15.6063C5.74194 15.2607 5.49174 14.9806 5.1831 14.9806C4.87447 14.9806 4.62427 15.2607 4.62427 15.6063C4.62427 15.9518 4.87447 16.232 5.1831 16.232Z" fill="#F55F44"/>
<path opacity="0.5" d="M1.08582 61.1672C1.39446 61.1672 1.64466 60.8871 1.64466 60.5415C1.64466 60.196 1.39446 59.9158 1.08582 59.9158C0.777184 59.9158 0.526985 60.196 0.526985 60.5415C0.526985 60.8871 0.777184 61.1672 1.08582 61.1672Z" fill="#F55F44"/>
<path opacity="0.5" d="M36.8916 4.91713C37.2003 4.91713 37.4505 4.637 37.4505 4.29145C37.4505 3.9459 37.2003 3.66577 36.8916 3.66577C36.583 3.66577 36.3328 3.9459 36.3328 4.29145C36.3328 4.637 36.583 4.91713 36.8916 4.91713Z" fill="#F55F44"/>
<path opacity="0.5" d="M42.5134 16.8483C42.822 16.8483 43.0722 16.5682 43.0722 16.2226C43.0722 15.877 42.822 15.5969 42.5134 15.5969C42.2048 15.5969 41.9546 15.877 41.9546 16.2226C41.9546 16.5682 42.2048 16.8483 42.5134 16.8483Z" fill="#F55F44"/>
<path opacity="0.5" d="M0.558836 45.5957C0.867472 45.5957 1.11767 45.3155 1.11767 44.97C1.11767 44.6244 0.867472 44.3443 0.558836 44.3443C0.250199 44.3443 0 44.6244 0 44.97C0 45.3155 0.250199 45.5957 0.558836 45.5957Z" fill="#F55F44"/>
<path opacity="0.5" d="M22.4456 15.2192C22.7542 15.2192 23.0044 14.9391 23.0044 14.5935C23.0044 14.248 22.7542 13.9678 22.4456 13.9678C22.137 13.9678 21.8868 14.248 21.8868 14.5935C21.8868 14.9391 22.137 15.2192 22.4456 15.2192Z" fill="#47E6B1"/>
<path opacity="0.5" d="M60.8844 56.7818C61.193 56.7818 61.4433 56.5017 61.4433 56.1561C61.4433 55.8105 61.193 55.5304 60.8844 55.5304C60.5758 55.5304 60.3256 55.8105 60.3256 56.1561C60.3256 56.5017 60.5758 56.7818 60.8844 56.7818Z" fill="#F55F44"/>
<g opacity="0.5">
<path opacity="0.5" d="M45.692 20.111C44.6096 18.8953 43.0312 18.4115 41.2448 18.7488C39.5758 19.0644 37.906 20.0762 36.5459 21.5982C36.1513 22.0427 35.8196 22.5521 35.5625 23.1088C35.312 22.5336 34.983 22.0056 34.5874 21.5437C33.2449 19.9964 31.5944 18.9527 29.9305 18.6041C28.1524 18.2283 26.5674 18.6849 25.4665 19.8799C24.3656 21.0749 23.91 22.8345 24.1869 24.8318C24.4453 26.7107 25.3213 28.5896 26.6639 30.1388C29.4816 33.3931 35.1043 32.122 35.3426 32.0656L35.4131 32.0496L35.6296 32.1051C35.867 32.1652 41.4688 33.5443 44.3352 30.3455C45.6987 28.8245 46.6074 26.9578 46.8952 25.0901C47.2015 23.0957 46.7744 21.3267 45.692 20.111ZM34.3902 30.1867C33.0318 30.3915 29.6452 30.6696 27.9636 28.7277C26.8829 27.4792 26.1755 25.9854 25.9741 24.5236C25.7895 23.1896 26.0581 22.0557 26.7243 21.3295C26.9856 21.0484 27.2982 20.834 27.6406 20.701C28.2011 20.4783 28.8682 20.437 29.5974 20.5901C30.8963 20.8616 32.2069 21.6996 33.2894 22.9482C34.9709 24.8947 34.6151 28.676 34.3902 30.1867ZM45.1122 24.7444C44.8881 26.2024 44.1581 27.6812 43.0581 28.909C41.3463 30.8189 37.9648 30.4751 36.6105 30.244C36.4083 28.7258 36.1121 24.9389 37.823 23.029C38.923 21.8011 40.2463 20.9894 41.5494 20.7423C42.2811 20.6042 42.9473 20.6578 43.5045 20.8908C43.8447 21.0305 44.1538 21.251 44.4107 21.5371C45.0677 22.2783 45.3169 23.417 45.1122 24.7463V24.7444Z" fill="url(#paint0_linear_1_106)"/>
</g>
<path d="M35.8863 31.6569L35.3509 31.7837C35.1235 31.8373 29.7433 33.0529 27.0439 29.9396C25.7618 28.459 24.9202 26.6562 24.6726 24.8665C24.4083 22.9519 24.8405 21.2674 25.896 20.1241C26.9516 18.9808 28.467 18.5477 30.1679 18.9028C31.7621 19.2363 33.343 20.235 34.6243 21.7156C37.3194 24.8299 36.0658 30.8123 36.0105 31.065L35.8863 31.6569ZM27.9812 20.9104C27.6536 21.0377 27.3544 21.2428 27.1043 21.5117C26.4649 22.205 26.2099 23.2901 26.3861 24.5668C26.5791 25.9657 27.2554 27.3946 28.29 28.5896C29.8985 30.4478 33.1391 30.1867 34.4388 29.9856C34.6545 28.5379 34.9935 24.9191 33.3849 23.0609C32.3503 21.8659 31.0959 21.0645 29.8532 20.8062C29.1567 20.6577 28.5182 20.6981 27.9812 20.9104Z" fill="#FF8918"/>
<path d="M35.0926 31.6832L34.971 31.0857C34.9198 30.8311 33.7585 24.8252 36.5015 21.7644C37.8054 20.3083 39.4039 19.3406 41.0007 19.04C42.7066 18.7168 44.2169 19.18 45.2532 20.343C46.2895 21.5061 46.6973 23.199 46.4036 25.108C46.1284 26.8929 45.2582 28.6779 43.9543 30.1369C41.213 33.1929 35.8529 31.8777 35.6255 31.8195L35.0926 31.6832ZM43.1622 21.0909C42.6285 20.8673 41.9875 20.8156 41.2919 20.9481C40.045 21.1839 38.7746 21.9608 37.7257 23.1361C36.0886 24.9633 36.3714 28.5849 36.5653 30.0401C37.8616 30.2609 41.0964 30.5906 42.7351 28.7625C43.7882 27.5872 44.4863 26.1724 44.7011 24.7773C44.8974 23.5043 44.6591 22.4145 44.0298 21.709C43.7836 21.4352 43.4873 21.2243 43.1614 21.0909H43.1622Z" fill="#FF8918"/>
<g opacity="0.5">
<path opacity="0.5" d="M61.3267 30.0824H9.16366V41.7683H11.8739V75.5897H58.6164V41.7683H61.3267V30.0824Z" fill="url(#paint1_linear_1_106)"/>
</g>
<path d="M58.025 33.6157H12.4656V75.0148H58.025V33.6157Z" fill="#F5F5F5"/>
<path d="M39.5372 41.0083H30.9533V75.0148H39.5372V41.0083Z" fill="#FF8918"/>
<path opacity="0.1" d="M58.025 31.3976H12.4656V41.7476H58.025V31.3976Z" fill="black"/>
<path d="M60.6654 30.6583H9.82398V41.0083H60.6654V30.6583Z" fill="#F5F5F5"/>
<path d="M39.5372 30.6583H30.9533V41.0083H39.5372V30.6583Z" fill="#FF8918"/>
<path d="M65.675 31.5883C65.5139 31.0669 63.7518 32.5353 63.7518 32.5353L63.3457 32.508L62.5645 31.6982L63.1099 31.0876L58.5293 26.6919C58.407 26.5745 58.2643 26.4871 58.1101 26.4352C57.9559 26.3832 57.7937 26.3679 57.634 26.3903L53.827 26.923C53.8111 26.6787 53.676 26.3884 53.4863 26.0925C53.0961 25.3757 52.2738 24.5649 51.9692 24.2765L51.5052 20.7714L51.8996 20.1091C51.8267 20.0867 51.755 20.0598 51.6848 20.0283L51.7687 19.8883L51.7377 19.8789L51.7771 19.8282H51.7721L52.7597 18.5524C52.8326 18.4578 52.8699 18.3353 52.8638 18.2106C52.8577 18.0858 52.8086 17.9686 52.7269 17.8835L50.5277 16.0159C50.5945 15.8376 50.6265 15.6454 50.6217 15.4522C50.6384 15.0764 50.4908 14.7006 49.9923 14.4244C49.6841 14.26 49.3612 14.1325 49.0291 14.0439C48.4817 13.8861 47.9065 13.8955 47.3635 14.0712L47.3349 14.0336C46.6578 13.1674 45.7709 14.4094 45.7365 14.4611L42.2677 18.7826C42.173 18.95 42.1381 19.1511 42.1698 19.3461C42.2015 19.541 42.2975 19.7155 42.4388 19.8348L44.2748 21.3764L44.2689 21.3896L44.3729 21.4769C44.2941 21.6498 44.1892 21.7653 44.0491 21.7823L44.3301 21.9401C44.2858 21.9747 44.2345 21.9963 44.1808 22.003L45.468 22.7236C45.468 23.4752 45.5368 26.9014 46.6251 28.5849C46.7367 28.7908 46.8693 28.9815 47.0203 29.1532C47.0203 29.1532 47.1126 29.0969 47.2821 29.0057L47.4767 29.4407C47.6902 29.9191 48.0328 30.3101 48.4558 30.5583C48.8789 30.8065 49.361 30.8993 49.8338 30.8236L55.8752 29.8569L55.8115 30.072L55.8459 30.0664L53.8874 36.6426L54.2113 36.7638L54.2054 36.7769L54.2507 36.7986L53.8438 37.66L52.5616 38.7639C52.5616 38.7639 56.309 40.8673 56.7034 40.5357C57.0978 40.2041 55.3223 38.7686 55.3223 38.7686L55.2232 38.327L55.6545 37.3077L56.0162 37.443L58.9203 30.9382L59.0193 30.7174L60.9828 33.4691L61.5366 32.8491L61.5962 32.9167L61.6012 32.9111L62.369 33.781L62.9253 35.4814C62.9253 35.4814 65.8386 32.1088 65.675 31.5883ZM50.4304 18.9423L50.3918 18.8925C50.0829 19.3014 49.7058 19.639 49.2816 19.8864V19.5247L49.3035 19.5031V19.3462C49.5955 19.0453 49.8068 18.6591 49.9134 18.231C50.02 17.803 50.0177 17.3501 49.9068 16.9234L51.1813 18.0216L50.4304 18.9423ZM46.0998 14.865L46.0688 14.8303L46.0998 14.8641V14.865ZM45.0803 17.1648C45.0719 17.2788 45.0686 17.394 45.0702 17.5105C45.068 17.6792 45.0765 17.8477 45.0954 18.015C45.1608 18.5994 45.3471 19.0766 45.7331 19.304C46.0688 19.5012 46.2894 19.4919 46.4304 19.3556L46.4455 19.3707C46.4572 19.5994 46.5103 19.8232 46.6016 20.0283C45.8826 19.8603 45.1959 19.5508 44.5735 19.1142C44.5735 19.1142 44.5735 19.1433 44.5785 19.1959L44.0507 18.605L45.0803 17.1648Z" fill="url(#paint2_linear_1_106)"/>
<path d="M54.7079 35.5397L53.8453 37.3632L55.1862 38.0067L56.0487 35.969L54.7079 35.5397Z" fill="#FDA57D"/>
<path d="M55.1861 38.0067L55.2818 38.436C55.2818 38.436 57.0061 39.8302 56.6244 40.1524C56.2426 40.4746 52.5967 38.436 52.5967 38.436L53.8419 37.3632L55.1861 38.0067Z" fill="#333333"/>
<path opacity="0.1" d="M55.9565 36.1579L54.6005 35.6515L54.1969 36.5045L55.5378 37.149L55.9565 36.1579Z" fill="black"/>
<path d="M60.8342 32.1238L62.1289 33.5912L63.0796 32.3521L61.602 30.8199L60.8342 32.1238Z" fill="#FDA57D"/>
<path opacity="0.1" d="M61.6549 30.8913L60.8871 32.1952L61.378 32.7523L62.374 31.6372L61.6549 30.8913Z" fill="black"/>
<path d="M63.0805 32.3521L63.4749 32.3784C63.4749 32.3784 65.1799 30.9551 65.3393 31.4606C65.4988 31.966 62.671 35.2438 62.671 35.2438L62.1306 33.5922L63.0805 32.3521Z" fill="#333333"/>
<path d="M50.8011 21.3764L52.7914 18.7985C52.8619 18.7066 52.8979 18.5877 52.892 18.4668C52.886 18.3458 52.8386 18.2321 52.7595 18.1494L48.429 14.4723L47.902 15.3911L51.2584 18.2837L49.8319 20.033L50.8011 21.3764Z" fill="#FDA57D"/>
<path opacity="0.1" d="M50.5731 19.1302L49.8766 19.9851L50.8441 21.3294L51.8418 20.0405C51.3548 19.8671 50.9172 19.5531 50.5731 19.1302Z" fill="black"/>
<path d="M45.0214 21.9364L42.7684 20.0405C42.6311 19.9249 42.5376 19.7558 42.5066 19.5666C42.4755 19.3774 42.509 19.1821 42.6006 19.0193L45.9721 14.819L46.6618 15.5913L44.3333 18.8455L45.7111 20.3928L45.0214 21.9364Z" fill="#FDA57D"/>
<path opacity="0.1" d="M44.5466 21.5559L44.915 21.8659L45.6047 20.3224L44.7387 19.3528C44.7572 19.6817 44.8092 20.9574 44.5466 21.5559Z" fill="black"/>
<path d="M55.9565 29.4285L53.8882 36.3749L55.9565 37.1471L59.4035 29.4285L56.6463 28.6572L55.9565 29.4285Z" fill="#4D8AF0"/>
<path opacity="0.1" d="M55.861 29.6428L55.7578 29.9904L57.9294 29.6428L58.7777 30.8302L59.308 29.6428L56.5499 28.8715L55.861 29.6428Z" fill="black"/>
<path d="M45.9689 14.8275C45.9689 14.8275 46.8525 13.5526 47.5229 14.4103C48.1933 15.2681 46.4665 15.3752 46.4665 15.3752L45.9689 14.8275Z" fill="#FDA57D"/>
<path d="M46.9942 27.885L47.6604 29.3778C47.8679 29.8422 48.2006 30.2217 48.6114 30.4626C49.0223 30.7036 49.4904 30.7937 49.9495 30.7203L58.024 29.4286L60.7821 33.2869L62.8505 30.9712L58.4033 26.7013C58.2847 26.5873 58.146 26.5024 57.9963 26.4519C57.8466 26.4014 57.6892 26.3866 57.534 26.4082L46.9942 27.885Z" fill="#4D8AF0"/>
<path opacity="0.1" d="M44.9677 19.5586C44.9677 19.5586 45.1489 22.0651 44.46 22.1515L45.8387 22.9237C45.8387 22.9237 45.7623 27.4688 47.2173 29.0988C47.2173 29.0988 49.9024 27.4698 52.7327 27.5553C55.5629 27.6408 52.0429 24.4682 52.0429 24.4682L51.5772 20.9546L51.9607 20.3111C51.4409 20.1372 50.9755 19.8024 50.6181 19.3453C50.2347 19.8818 49.3595 20.6089 48.5942 20.6089H48.2645C47.1292 20.6089 45.9217 20.3524 44.9652 19.6694L44.9677 19.5586Z" fill="black"/>
<path d="M44.8402 19.3444C44.8402 19.3444 45.0214 21.8508 44.3326 21.9373L45.7112 22.7086C45.7112 22.7086 45.6348 27.2537 47.0898 28.8836C47.0898 28.8836 49.7749 27.2546 52.6052 27.3401C55.4354 27.4256 51.9154 24.253 51.9154 24.253L51.4497 20.7394L51.8332 20.0959C51.3134 19.922 50.848 19.5872 50.4907 19.1302C50.1072 19.6666 49.232 20.3937 48.4668 20.3937H48.137C46.9715 20.394 45.829 20.0306 44.8377 19.3444H44.8402Z" fill="#3AD29F"/>
<path d="M46.656 18.6379V19.4993C46.656 19.9359 46.8108 20.3546 47.0864 20.6633L48.7235 22.4962L49.2689 21.2749C49.3639 21.0623 49.4133 20.8278 49.4132 20.5901V18.636L46.656 18.6379Z" fill="#FDA57D"/>
<path opacity="0.1" d="M46.6771 19.63C46.6771 19.6619 46.6771 19.6929 46.6771 19.7239C47.056 20.1029 47.5464 20.3124 48.0545 20.3124C48.5626 20.3124 49.0529 20.1029 49.4319 19.7239V18.7685H46.6771V19.63Z" fill="black"/>
<path d="M48.0348 20.1815C49.1771 20.1815 50.1031 19.1446 50.1031 17.8657C50.1031 16.5867 49.1771 15.5499 48.0348 15.5499C46.8924 15.5499 45.9664 16.5867 45.9664 17.8657C45.9664 19.1446 46.8924 20.1815 48.0348 20.1815Z" fill="#FDA57D"/>
<path opacity="0.1" d="M46.6561 17.2127H50.1031C50.1031 17.2127 51.4817 15.6692 50.1031 14.897C49.8037 14.7371 49.4901 14.613 49.1675 14.5268C47.0698 13.9312 45.0777 15.8731 45.3471 18.2762C45.4109 18.8399 45.5929 19.3096 45.9663 19.5275C47.4222 20.3862 46.6561 17.2127 46.6561 17.2127Z" fill="black"/>
<path d="M46.6561 17.1057H50.1031C50.1031 17.1057 51.4817 15.5621 50.1031 14.7899C49.8037 14.6301 49.4901 14.506 49.1675 14.4198C47.0698 13.8241 45.0777 15.766 45.3471 18.1691C45.4109 18.7328 45.5929 19.2025 45.9663 19.4205C47.4222 20.2792 46.6561 17.1057 46.6561 17.1057Z" fill="#333333"/>
<path d="M46.7568 18.2715C46.8625 18.2715 46.9481 18.1033 46.9481 17.8957C46.9481 17.6882 46.8625 17.5199 46.7568 17.5199C46.6511 17.5199 46.5655 17.6882 46.5655 17.8957C46.5655 18.1033 46.6511 18.2715 46.7568 18.2715Z" fill="#FDA57D"/>
<path opacity="0.1" d="M45.7027 22.6692L45.7984 22.3469L46.0854 22.5621L45.7027 22.6692Z" fill="black"/>
<path opacity="0.1" d="M51.9206 24.254C51.9206 24.254 50.8776 24.8177 50.5898 25.3504L51.9206 24.254Z" fill="black"/>
<path opacity="0.1" d="M51.4506 20.7385L51.3549 21.0598L51.1628 20.7385H51.4506Z" fill="black"/>
<path d="M46.6561 17.1057H50.1031C50.1031 17.1057 51.4817 15.5621 50.1031 14.7899C49.8037 14.6301 49.4901 14.506 49.1675 14.4198C47.0698 13.8241 45.0777 15.766 45.3471 18.1691C45.4109 18.7328 45.5929 19.2025 45.9663 19.4205C47.4222 20.2792 46.6561 17.1057 46.6561 17.1057Z" fill="#333333"/>
</g>
<defs>
<linearGradient id="paint0_linear_1_106" x1="35.5499" y1="32.4517" x2="35.5499" y2="18.4763" gradientUnits="userSpaceOnUse">
<stop stop-color="#808080" stop-opacity="0.25"/>
<stop offset="0.54" stop-color="#808080" stop-opacity="0.12"/>
<stop offset="1" stop-color="#808080" stop-opacity="0.1"/>
</linearGradient>
<linearGradient id="paint1_linear_1_106" x1="21919.7" y1="36645.8" x2="21919.7" y2="14602" gradientUnits="userSpaceOnUse">
<stop stop-color="#808080" stop-opacity="0.25"/>
<stop offset="0.54" stop-color="#808080" stop-opacity="0.12"/>
<stop offset="1" stop-color="#808080" stop-opacity="0.1"/>
</linearGradient>
<linearGradient id="paint2_linear_1_106" x1="19139.1" y1="12671.6" x2="19139.1" y2="5001.55" gradientUnits="userSpaceOnUse">
<stop stop-color="#808080" stop-opacity="0.25"/>
<stop offset="0.54" stop-color="#808080" stop-opacity="0.12"/>
<stop offset="1" stop-color="#808080" stop-opacity="0.1"/>
</linearGradient>
<clipPath id="clip0_1_106">
<rect width="72" height="75.5897" fill="white"/>
</clipPath>
</defs>
</svg>
