<svg width="16" height="16" viewBox="0 0 16 16" fill="none" xmlns="http://www.w3.org/2000/svg">
<g clip-path="url(#clip0_1_497)">
<path d="M9.42473 6.60621L9.43017 6.60997V3.14453H6.85945V5.00117C7.4144 4.76951 8.04718 4.82139 8.55708 5.14037C9.06685 5.4592 9.39028 6.00551 9.42473 6.60593V6.60621Z" fill="#06C25E"/>
<path d="M6.28827 6.71499C6.28827 6.74358 6.29316 6.76868 6.29483 6.79588L6.98674 6.33451C7.0827 6.27049 7.2078 6.27049 7.30376 6.33451L8.00209 6.80076L8.70055 6.33507C8.72608 6.31847 8.75411 6.30606 8.78368 6.29825C8.58117 5.7041 7.97824 5.34398 7.35913 5.44747C6.74002 5.55082 6.28674 6.08737 6.28827 6.71499Z" fill="#06C25E"/>
<path d="M9.5978 2.5731L10.4547 1.71619H8.12052L7.2636 2.5731H9.5978Z" fill="#06C25E"/>
<path d="M10.0015 6.60997L10.2214 6.46311L11.7373 2.42791L11.144 1.83459L10.0015 2.97715V6.60997Z" fill="#06C25E"/>
<path d="M4.85043 2.44212C4.95113 2.54742 4.95657 2.71171 4.86284 2.82329C4.76925 2.93501 4.60649 2.95816 4.48529 2.87713C4.36492 2.79679 4.20453 2.81186 4.10118 2.91311L4.09393 2.92092L4.08891 2.9258C4.04776 2.97016 4.02029 3.02553 4.00969 3.08508C3.9896 3.1901 4.02154 3.29833 4.09546 3.3756C4.1023 3.38271 4.14679 3.43278 4.20258 3.49931L4.27566 3.58495C4.37873 3.58997 4.48111 3.60545 4.58097 3.63125C5.01012 3.74339 5.37024 4.03474 5.56927 4.43098L6.10861 5.57953C6.16384 5.50854 6.22409 5.44173 6.28908 5.37967V2.85886C6.28908 2.85258 6.29229 2.84742 6.29257 2.84114C6.29424 2.81548 6.2994 2.7901 6.30805 2.76583C6.31112 2.75662 6.31335 2.74784 6.3174 2.73891C6.33093 2.70879 6.34961 2.68117 6.37249 2.65746L6.50513 2.52496L6.49648 2.51645L7.33805 1.65954C7.46205 1.53248 7.46205 1.32955 7.33805 1.20249C7.21755 1.0838 7.02424 1.0838 6.90388 1.20249L6.48281 1.63067C6.4015 1.71324 6.27834 1.73862 6.17109 1.69483C6.06384 1.65089 5.99368 1.54657 5.99354 1.43067V0.288114C5.99814 0.186718 5.94668 0.0910402 5.85951 0.0390172C5.77248 -0.0130057 5.66383 -0.0130057 5.57666 0.0390172C5.48963 0.0910402 5.43816 0.186718 5.44277 0.288114V1.43067C5.44277 1.54671 5.37261 1.65117 5.26508 1.6951C5.15769 1.7389 5.03439 1.71352 4.95322 1.63067L4.53383 1.20221C4.4765 1.14308 4.3977 1.10974 4.31541 1.1096C4.23298 1.1096 4.15418 1.14308 4.09686 1.20221C3.97371 1.32927 3.97287 1.53095 4.09491 1.65926L4.85043 2.44212Z" fill="#06C25E"/>
<path d="M8.28775 0.574036H10.8585V1.14532H8.28775V0.574036Z" fill="#06C25E"/>
<path d="M3.64821 12.5704C3.40232 12.5697 3.16648 12.6675 2.99325 12.8418L2.77693 13.058C2.66535 13.1696 2.4846 13.1696 2.37302 13.058L2.15684 12.8418C1.89198 12.5769 1.49351 12.4977 1.14734 12.641C0.801315 12.7843 0.575649 13.1221 0.57551 13.4968C0.576347 14.1581 0.730324 14.8103 1.02545 15.4022L1.12517 15.6022C1.24623 15.8456 1.49505 15.999 1.76688 15.9981C1.87887 15.9981 1.9892 15.9723 2.08948 15.9225L2.44876 15.7424C2.52909 15.7022 2.62379 15.7022 2.70413 15.7424L3.06369 15.9225C3.16299 15.9718 3.2722 15.9977 3.38308 15.9981C3.65519 15.9989 3.904 15.8451 4.02493 15.6014L4.12465 15.4014C4.41963 14.8098 4.57361 14.1579 4.57444 13.4968C4.57389 12.9854 4.15952 12.5711 3.64821 12.5704Z" fill="#06C25E"/>
<path d="M12.9853 7.38146L12.2868 6.91534L11.7156 7.2961V15.9986H12.8581C13.3315 15.9986 13.715 15.6151 13.715 15.1417V7.10642L13.3023 7.38146C13.2064 7.44548 13.0813 7.44548 12.9853 7.38146Z" fill="#06C25E"/>
<path d="M3.5237 5.85407L4.26625 5.27959L4.61591 5.73148L3.87949 6.3008L3.94072 6.37765L4.57448 6.80039L5.27296 6.33469C5.36891 6.27067 5.49402 6.27067 5.58998 6.33469L5.74047 6.43525C5.75079 6.36691 5.76501 6.29899 5.783 6.23218L5.05496 4.68098C4.93 4.43397 4.70489 4.2528 4.4371 4.18334C4.16918 4.11402 3.88452 4.16312 3.65536 4.31821C3.42398 4.47637 3.2707 4.72519 3.23332 5.00288C3.19594 5.2807 3.27809 5.56118 3.45941 5.77485L3.5237 5.85407Z" fill="#06C25E"/>
<path d="M9.87457 7.38146C9.77861 7.44548 9.6535 7.44548 9.55755 7.38146L8.85907 6.91534L8.16074 7.3809C8.06478 7.44492 7.93967 7.44492 7.84372 7.3809L7.14524 6.91534L6.4469 7.3809C6.35095 7.44492 6.22584 7.44492 6.12988 7.3809L5.43141 6.91534L4.73307 7.3809C4.63712 7.44492 4.51201 7.44492 4.41605 7.3809L4.00322 7.10642V12.0479C4.6724 12.2111 5.14396 12.8097 5.14577 13.4984C5.14479 14.2485 4.97018 14.988 4.63572 15.6592L4.536 15.8592C4.51117 15.9079 4.48342 15.9551 4.45287 16.0004H11.1442V7.29666L10.5729 6.91534L9.87457 7.38146Z" fill="#06C25E"/>
<path d="M15.1882 0.55782C14.9532 0.209838 14.5606 0.00174579 14.1407 0.00244315C13.6042 0.00927728 13.1272 0.345823 12.941 0.849176L10.8502 6.41368L11.4297 6.80071L12.1282 6.33502C12.2241 6.271 12.3492 6.271 12.4452 6.33502L13.1435 6.80071L13.572 6.51508L15.343 1.80372C15.4988 1.3881 15.441 0.922538 15.1882 0.55782ZM12.8579 5.80377L12.2997 4.08994L12.8425 3.91281L13.4003 5.62664L12.8579 5.80377ZM13.6949 3.8043L13.1367 2.09047L13.6794 1.91335L14.2373 3.62717L13.6949 3.8043Z" fill="#06C25E"/>
</g>
<defs>
<clipPath id="clip0_1_497">
<rect width="16" height="16" fill="white"/>
</clipPath>
</defs>
</svg>
