<svg width="40" height="41" viewBox="0 0 40 41" fill="none" xmlns="http://www.w3.org/2000/svg">
<path fill-rule="evenodd" clip-rule="evenodd" d="M18.3795 32.5504L34.8904 16.0395L38.6429 19.7921L22.1319 36.303L18.3795 32.5504Z" fill="#FFB1B1"/>
<path fill-rule="evenodd" clip-rule="evenodd" d="M22.132 36.303L14.6271 40.0555L18.3796 32.5504L22.132 36.303Z" fill="#FFE2D4"/>
<path fill-rule="evenodd" clip-rule="evenodd" d="M0.5 1.91296V38.6431L37.2302 1.91296H0.5ZM9.00235 11.0955H19.2052L9.00235 21.2983V11.0955Z" fill="#87DDB7"/>
<path d="M24.3393 14.8036L19.5714 19.5714L0.5 38.6429V0.5H38.6429L33.875 5.26786L29.1071 10.0357" stroke="#586597" stroke-linecap="round" stroke-linejoin="round"/>
<path d="M27.4708 13.7978C27.4708 14.1879 27.1545 14.5042 26.7644 14.5042C26.3742 14.5042 26.0581 14.1879 26.0581 13.7978C26.0581 13.4078 26.3742 13.0915 26.7644 13.0915C27.1545 13.0915 27.4708 13.4078 27.4708 13.7978ZM29.139 30.1731C29.139 30.5632 28.8227 30.8795 28.4327 30.8795C28.0425 30.8795 27.7263 30.5632 27.7263 30.1731C27.7263 29.7831 28.0425 29.4668 28.4327 29.4668C28.8227 29.4668 29.139 29.7831 29.139 30.1731Z" fill="#586597"/>
<path d="M22.1239 34.8826L18.3866 31.1454M19.9242 10.0355L9.32892 10.0357V20.6308L19.9242 10.0355ZM11.0948 2.96205V0.862488V2.96205ZM7.56305 4.37475V0.86266V4.37475ZM18.1583 2.96205V0.862488V2.96205ZM14.6265 4.37475V0.86266V4.37475ZM25.2218 2.96205V0.862488V2.96205ZM21.69 4.37475V0.86266V4.37475ZM28.7535 4.37475V0.86266V4.37475ZM2.96212 11.0949H0.862734H2.96212ZM4.37482 7.56315H0.862734H4.37482ZM2.96212 18.1586H0.862734H2.96212ZM4.37482 14.6268H0.862734H4.37482ZM2.96212 25.2221H0.862734H2.96212ZM4.37482 21.6903H0.862734H4.37482ZM4.37482 28.7538H0.862734H4.37482ZM26.2592 30.7626L22.1315 34.8903L14.6265 38.6429L18.379 31.1377L34.8899 14.6268L38.6424 18.3792L30.387 26.6347L26.2592 30.7626Z" stroke="#586597" stroke-linecap="round" stroke-linejoin="round"/>
</svg>
