<svg width="32" height="30" viewBox="0 0 32 30" fill="none" xmlns="http://www.w3.org/2000/svg">
<path d="M17.5498 17.8125V23.4375C17.5498 23.6861 17.6526 23.9246 17.8354 24.1004C18.0183 24.2762 18.2662 24.375 18.5248 24.375H24.3748C24.6334 24.375 24.8814 24.2762 25.0643 24.1004C25.2471 23.9246 25.3498 23.6861 25.3498 23.4375V17.8125C25.3498 17.5639 25.2471 17.3254 25.0643 17.1496C24.8814 16.9738 24.6334 16.875 24.3748 16.875H18.5248C18.2662 16.875 18.0183 16.9738 17.8354 17.1496C17.6526 17.3254 17.5498 17.5639 17.5498 17.8125ZM19.4998 22.5V18.75H23.3998V22.5H19.4998Z" fill="#29D177"/>
<path d="M5.85 0C5.70709 5.15252e-05 5.56594 0.0303097 5.43654 0.0886323C5.30714 0.146955 5.19266 0.231916 5.1012 0.3375L0.2262 5.9625C0.0801432 6.13091 0.000102616 6.34322 0 6.5625V9.375C0 11.04 0.7527 12.5381 1.95 13.5675V29.0625C1.95 29.3111 2.05272 29.5496 2.23557 29.7254C2.41842 29.9012 2.66641 30 2.925 30H28.275C28.5336 30 28.7816 29.9012 28.9644 29.7254C29.1473 29.5496 29.25 29.3111 29.25 29.0625V13.5675C30.4473 12.5363 31.2 11.04 31.2 9.375V6.5625V6.52875C31.2 6.36 31.2 6.225 30.9738 5.9625L26.0988 0.3375C26.0073 0.231916 25.8929 0.146955 25.7635 0.0886323C25.6341 0.0303097 25.4929 5.15252e-05 25.35 0H5.85ZM5.85 13.125C4.81566 13.125 3.82368 12.7299 3.09228 12.0266C2.36089 11.3234 1.95 10.3696 1.95 9.375V7.5H9.75V9.375C9.75 10.3696 9.33911 11.3234 8.60772 12.0266C7.87633 12.7299 6.88434 13.125 5.85 13.125ZM15.6 13.125C14.5657 13.125 13.5737 12.7299 12.8423 12.0266C12.1109 11.3234 11.7 10.3696 11.7 9.375V7.5H19.5V9.375C19.5 10.3696 19.0891 11.3234 18.3577 12.0266C17.6263 12.7299 16.6343 13.125 15.6 13.125ZM25.35 13.125C24.3157 13.125 23.3237 12.7299 22.5923 12.0266C21.8609 11.3234 21.45 10.3696 21.45 9.375V7.5H29.25V9.375C29.25 10.3696 28.8391 11.3234 28.1077 12.0266C27.3763 12.7299 26.3843 13.125 25.35 13.125ZM5.85 28.125H3.9V14.6812C5.12908 15.1002 6.46857 15.1118 7.70531 14.7142C8.94205 14.3167 10.005 13.5329 10.725 12.4875C11.2586 13.2608 11.9831 13.895 12.8338 14.3334C13.6845 14.7718 14.6348 15.0008 15.6 15C16.5653 15.0006 17.5158 14.7713 18.3665 14.3326C19.2172 13.8938 19.9416 13.2593 20.475 12.4856C21.195 13.531 22.258 14.3148 23.4947 14.7124C24.7314 15.1099 26.0709 15.0983 27.3 14.6794V28.125H15.6V17.8125C15.6 17.5639 15.4973 17.3254 15.3144 17.1496C15.1316 16.9738 14.8836 16.875 14.625 16.875H6.825C6.56641 16.875 6.31842 16.9738 6.13557 17.1496C5.95272 17.3254 5.85 17.5639 5.85 17.8125V28.125ZM10.023 5.625H3.0576L6.3063 1.875H11.3217L10.023 5.625ZM19.1217 5.625H12.0783L13.377 1.875H17.823L19.1217 5.625ZM21.177 5.625L19.8783 1.875H24.8937L28.1444 5.625H21.177ZM7.8 28.125V18.75H13.65V28.125H7.8Z" fill="#29D177"/>
</svg>
