<svg width="28" height="32" viewBox="0 0 28 32" fill="none" xmlns="http://www.w3.org/2000/svg">
<path d="M2.08333 10.2309C1.79601 10.2309 1.52046 10.3525 1.3173 10.5688C1.11414 10.7852 1 11.0787 1 11.3847V26.9616C1 29.1423 2.74415 31 4.79164 31H23.2082C25.2557 31 26.9998 29.2325 26.9998 27.0517V11.3847C26.9998 11.0787 26.8857 10.7852 26.6825 10.5688C26.4794 10.3525 26.2038 10.2309 25.9165 10.2309H2.08333Z" stroke="#7D7D7D" stroke-width="2" stroke-linecap="round" stroke-linejoin="round"/>
<path d="M7.49926 10.2307V7.92304C7.49926 6.08693 8.18408 4.32603 9.40306 3.02771C10.622 1.72939 12.2753 1 13.9992 1V1C15.7231 1 17.3764 1.72939 18.5954 3.02771C19.8144 4.32603 20.4992 6.08693 20.4992 7.92304V10.2307" stroke="#7D7D7D" stroke-width="2" stroke-linecap="round" stroke-linejoin="round"/>
<path d="M7.49926 13.6924V14.8462C7.49926 16.6823 8.18408 18.4432 9.40306 19.7415C10.622 21.0399 12.2753 21.7693 13.9992 21.7693C15.7231 21.7693 17.3764 21.0399 18.5954 19.7415C19.8144 18.4432 20.4992 16.6823 20.4992 14.8462V13.6924" stroke="#7D7D7D" stroke-width="2" stroke-linecap="round" stroke-linejoin="round"/>
</svg>
