<svg width="34" height="35" viewBox="0 0 34 35" fill="none" xmlns="http://www.w3.org/2000/svg">
<path d="M21.5 13.5C24.75 13.5 26.75 8.75 26.75 5.75C26.75 3.25 25.5 0.25 23 0.25C19.75 0.25 17.75 5 17.75 8C17.75 10.5 19 13.5 21.5 13.5ZM12 13.5C14.5 13.5 15.75 10.5 15.75 8C15.75 4.75 13.75 0 10.5 0C8 0 6.75 3 6.75 5.5C6.5 8.75 8.5 13.5 12 13.5ZM30.5 11C27.25 11 25 15.5 25 18.75C25 21 26 23.25 28.25 23.25C31.5 23.25 33.75 18.75 33.75 15.5C33.75 13.25 32.5 11 30.5 11ZM8.75 18.75C8.75 15.5 6.25 11 3.25 11C1 11 0 13.25 0 15.5C0 18.75 2.5 23.25 5.5 23.25C7.75 23.25 8.75 21 8.75 18.75ZM16.75 18.25C11.75 18.25 5 26.25 5 31.75C5 34.25 6.75 35 8.75 35C11.75 35 14 33 16.75 33C19.25 33 21.5 35 24.25 35C26.25 35 28.5 34.5 28.5 31.75C28.5 26.25 21.75 18.25 16.75 18.25Z" fill="#FFB044"/>
</svg>
