<svg width="30" height="30" viewBox="0 0 30 30" fill="none" xmlns="http://www.w3.org/2000/svg">
<path d="M22.8474 3.26134C17.0849 3.36884 13.0707 0.457174 10.2941 0.509674C7.51738 0.562174 1.71405 2.26717 1.95322 15.043C2.19238 27.8188 10.0732 29.5463 13.1282 29.4897C27.4307 29.2222 33.0541 3.07051 22.8474 3.26134Z" fill="#EFEFEF"/>
<path d="M13.3383 13.125H13.3283L5.625 9.375V13.6492V17.0833L13.3333 21.3542L21.0417 17.0833V9.375L13.3383 13.125Z" fill="#F3F3F1"/>
<path d="M5.625 9.375L13.3283 5.625L21.0417 9.375L13.3283 13.125L5.625 9.375Z" fill="#29D177"/>
<path d="M19.5834 24.3751C22.2298 24.3751 24.3751 22.2298 24.3751 19.5834C24.3751 16.9371 22.2298 14.7917 19.5834 14.7917C16.9371 14.7917 14.7917 16.9371 14.7917 19.5834C14.7917 22.2298 16.9371 24.3751 19.5834 24.3751Z" fill="#29D177"/>
<path d="M15.2033 13.125H15.2133L21.0416 10.2875V9.375L14.2708 12.6708L15.2033 13.125Z" fill="#D5DBE1"/>
<path d="M7.5 17.0833V13.6492V10.2875L5.625 9.375V13.6492V17.0833L13.3333 21.3542L14.2708 20.835L7.5 17.0833Z" fill="#D5DBE1"/>
<path d="M8.54167 9.375L14.7875 6.33417L13.3283 5.625L5.625 9.375L13.3283 13.125L14.7875 12.4158L8.54167 9.375Z" fill="#00B871"/>
<path d="M16.6668 19.5834C16.6668 17.2584 18.3234 15.3209 20.5209 14.8851C20.2176 14.8251 19.9043 14.7917 19.5834 14.7917C16.9368 14.7917 14.7917 16.9368 14.7917 19.5834C14.7917 22.2301 16.9368 24.3751 19.5834 24.3751C19.9043 24.3751 20.2176 24.3426 20.5209 24.2818C18.3234 23.8459 16.6668 21.9084 16.6668 19.5834Z" fill="#00B871"/>
<path d="M23.6108 8.95306L24.2001 8.36381L25.3786 9.54232L24.7893 10.1316L23.6108 8.95306Z" fill="#A4AFC1"/>
<path d="M20.223 5.56433L20.8123 4.97508L21.9908 6.15359L21.4015 6.74284L20.223 5.56433Z" fill="#A4AFC1"/>
<path d="M23.7587 6.15399L24.9372 4.97548L25.5264 5.56474L24.3479 6.74325L23.7587 6.15399Z" fill="#A4AFC1"/>
<path d="M12.2433 25.6247C11.5541 25.6247 10.9933 25.0639 10.9933 24.3747C10.9933 23.6855 11.5541 23.1247 12.2433 23.1247C12.9324 23.1247 13.4933 23.6855 13.4933 24.3747C13.4933 25.0639 12.9333 25.6247 12.2433 25.6247ZM12.2433 23.958C12.0133 23.958 11.8266 24.1447 11.8266 24.3747C11.8266 24.6047 12.0133 24.7914 12.2433 24.7914C12.4733 24.7914 12.66 24.6047 12.66 24.3747C12.66 24.1447 12.4733 23.958 12.2433 23.958Z" fill="#A4AFC1"/>
<path d="M18.7501 21.8751C18.5843 21.8751 18.4251 21.8093 18.3084 21.6918L16.8501 20.2334L17.7343 19.3493L18.7184 20.3326L20.9868 17.7151L21.9318 18.5334L19.2234 21.6584C19.1093 21.7893 18.9468 21.8676 18.7734 21.8734C18.7651 21.8751 18.7576 21.8751 18.7501 21.8751Z" fill="black"/>
<path d="M19.5833 25.0004C16.5966 25.0004 14.1666 22.5704 14.1666 19.5837C14.1666 16.5971 16.5966 14.1671 19.5833 14.1671C22.57 14.1671 25 16.5971 25 19.5837C25 22.5704 22.57 25.0004 19.5833 25.0004ZM19.5833 15.4171C17.2858 15.4171 15.4166 17.2862 15.4166 19.5837C15.4166 21.8812 17.2858 23.7504 19.5833 23.7504C21.8808 23.7504 23.75 21.8812 23.75 19.5837C23.75 17.2862 21.8808 15.4171 19.5833 15.4171Z" fill="black"/>
<path d="M12.4034 21.5871L5.32006 17.6287C5.12256 17.5179 5.00006 17.3087 5.00006 17.0829V9.37456C5.00006 9.15956 5.11089 8.95873 5.29423 8.84456C5.47589 8.72956 5.70506 8.71706 5.89923 8.81206L13.3334 12.4321L20.7684 8.81289C20.9634 8.71873 21.1917 8.73039 21.3734 8.84539C21.5559 8.95873 21.6667 9.15956 21.6667 9.37456V12.7079H20.4167V10.3737L13.6117 13.6862C13.4417 13.7696 13.2242 13.7696 13.0542 13.6862L6.25006 10.3737V16.7162L13.0134 20.4954L12.4034 21.5871Z" fill="black"/>
<path d="M20.7682 9.93705L13.3282 6.32038L5.89823 9.93705L5.35156 8.81288L13.0549 5.06288C13.2274 4.97871 13.4291 4.97871 13.6016 5.06288L21.3149 8.81288L20.7682 9.93705Z" fill="black"/>
<path d="M10.0001 14.3667H8.75006V11.2C8.75006 10.9642 8.88339 10.7483 9.09423 10.6417L16.6692 6.82416L17.2317 7.94082L10.0001 11.585V14.3667Z" fill="black"/>
</svg>
